<svg xmlns="http://www.w3.org/2000/svg" viewBox="0 0 199.6 32"><defs><style>.cls-1{fill:#17b681;}.cls-2{fill:#e8b221;}.cls-3{fill:#ee4543;}.cls-4{fill:#3f3f46;}</style></defs><title>header-v3</title><g id="Layer_3" data-name="Layer 3"><path class="cls-1" d="M3.81,23.56h0a3.78,3.78,0,0,1-3.29-1.9h0A3.8,3.8,0,0,1,3.81,16h0A3.8,3.8,0,0,1,7.1,17.86h0A3.8,3.8,0,0,1,3.81,23.56Z"/><path class="cls-2" d="M15.52,23.56h0a3.79,3.79,0,0,1-3.29-1.9L8.93,16,7.47,13.42l-1.1-1.9A3.81,3.81,0,0,1,9.66,5.81h0A3.82,3.82,0,0,1,13,7.71l3.29,5.71L17.72,16l1.1,1.91A3.8,3.8,0,0,1,15.52,23.56Z"/><path class="cls-3" d="M27.24,23.56h0a3.8,3.8,0,0,1-3.3-1.9L20.65,16l-1.47-2.53-1.1-1.9a3.81,3.81,0,0,1,3.3-5.71h0a3.83,3.83,0,0,1,3.3,1.9L28,13.42,29.43,16l1.1,1.91A3.8,3.8,0,0,1,27.24,23.56Z"/><path class="cls-4" d="M63.46,5.8,58.65,23.56h-6L49.83,12l-2.9,11.52H41L36.11,5.8h5.44l2.52,12.7,3-12.7h5.76l3,12.64L58.33,5.8Z"/><path class="cls-4" d="M82.18,16H69.86a3.73,3.73,0,0,0,1.06,2.54,3.29,3.29,0,0,0,2.31.87,2.86,2.86,0,0,0,2.84-1.72h5.79A8,8,0,0,1,77.34,23a10.09,10.09,0,0,1-8.56-.32,7.94,7.94,0,0,1-3.19-3.18,9.87,9.87,0,0,1-1.15-4.84,9.87,9.87,0,0,1,1.14-4.84,7.83,7.83,0,0,1,3.16-3.19,10.36,10.36,0,0,1,9.27,0,7.78,7.78,0,0,1,3.14,3.09,9.43,9.43,0,0,1,1.13,4.68A14.75,14.75,0,0,1,82.18,16ZM76.7,13a2.82,2.82,0,0,0-1-2.23,3.53,3.53,0,0,0-2.39-.83,3.47,3.47,0,0,0-2.31.8A3.56,3.56,0,0,0,69.89,13Z"/><path class="cls-4" d="M101,7.63a7.87,7.87,0,0,1,1.86,5.55V23.56H97.4V13.91a3.94,3.94,0,0,0-.92-2.77,3.28,3.28,0,0,0-2.49-1,3.25,3.25,0,0,0-2.48,1,3.9,3.9,0,0,0-.92,2.77v9.65H85.14V5.8h5.45V8.15a5.8,5.8,0,0,1,2.22-1.86A7.08,7.08,0,0,1,96,5.6,6.44,6.44,0,0,1,101,7.63Z"/><path class="cls-4" d="M106.55,9.84a7.78,7.78,0,0,1,2.82-3.19,7.39,7.39,0,0,1,4-1.11,6.94,6.94,0,0,1,3.2.73,5.81,5.81,0,0,1,2.28,2V0h5.44V23.56h-5.44V21a5.58,5.58,0,0,1-2.18,2,6.87,6.87,0,0,1-3.3.77,7.32,7.32,0,0,1-4-1.13,7.86,7.86,0,0,1-2.82-3.22,10.72,10.72,0,0,1-1-4.82A10.61,10.61,0,0,1,106.55,9.84Zm11.15,1.62a3.82,3.82,0,0,0-5.51,0,4.4,4.4,0,0,0-1.13,3.2,4.52,4.52,0,0,0,1.13,3.23,3.8,3.8,0,0,0,5.51,0,4.44,4.44,0,0,0,1.13-3.21A4.48,4.48,0,0,0,117.7,11.46Z"/><path class="cls-4" d="M128.17,9.84A7.78,7.78,0,0,1,131,6.65a7.39,7.39,0,0,1,4-1.11,7,7,0,0,1,3.3.76,5.66,5.66,0,0,1,2.18,2V5.8h5.44V23.56h-5.44V21.05a6,6,0,0,1-2.21,2,6.87,6.87,0,0,1-3.3.77A7.27,7.27,0,0,1,131,22.69a7.86,7.86,0,0,1-2.82-3.22,10.72,10.72,0,0,1-1-4.82A10.61,10.61,0,0,1,128.17,9.84Zm11.15,1.62a3.82,3.82,0,0,0-5.51,0,4.4,4.4,0,0,0-1.13,3.2,4.52,4.52,0,0,0,1.13,3.23,3.8,3.8,0,0,0,5.51,0,4.44,4.44,0,0,0,1.13-3.21A4.48,4.48,0,0,0,139.32,11.46Z"/><path class="cls-4" d="M168,5.8,156.85,32H151l4.07-9L147.83,5.8h6.09L158,16.91,162.1,5.8Z"/><path class="cls-4" d="M166.38,23.31a1.15,1.15,0,0,1-.39-.88,1.2,1.2,0,0,1,.39-.91,1.41,1.41,0,0,1,1-.37,1.37,1.37,0,0,1,1,.37,1.2,1.2,0,0,1,.39.91,1.15,1.15,0,0,1-.39.88,1.36,1.36,0,0,1-1,.36A1.4,1.4,0,0,1,166.38,23.31Z"/><path class="cls-4" d="M170.13,17.73a3.35,3.35,0,0,1,1.34-1.35,3.92,3.92,0,0,1,2-.47,3.8,3.8,0,0,1,2.38.74,3.57,3.57,0,0,1,1.25,2.1H174.6a1.19,1.19,0,0,0-1.21-.87,1.21,1.21,0,0,0-1,.5,2.28,2.28,0,0,0-.38,1.41,2.3,2.3,0,0,0,.38,1.41,1.21,1.21,0,0,0,1,.5,1.19,1.19,0,0,0,1.21-.87h2.46a3.54,3.54,0,0,1-1.26,2.08,3.68,3.68,0,0,1-2.37.76,4,4,0,0,1-2-.47,3.31,3.31,0,0,1-1.34-1.36,4.2,4.2,0,0,1-.48-2.05A4.24,4.24,0,0,1,170.13,17.73Z"/><path class="cls-4" d="M179.73,23.2a3.43,3.43,0,0,1-1.39-1.36,4.38,4.38,0,0,1,0-4.1,3.55,3.55,0,0,1,1.41-1.36,4.49,4.49,0,0,1,4,0,3.48,3.48,0,0,1,1.41,1.36,4,4,0,0,1,.51,2.05,4,4,0,0,1-.52,2.05,3.51,3.51,0,0,1-1.42,1.36,4.32,4.32,0,0,1-2,.47A4.23,4.23,0,0,1,179.73,23.2Zm3.12-2a1.89,1.89,0,0,0,.47-1.39,2,2,0,0,0-.45-1.39,1.54,1.54,0,0,0-2.24,0,2,2,0,0,0-.45,1.4,2,2,0,0,0,.44,1.39,1.42,1.42,0,0,0,1.1.49A1.48,1.48,0,0,0,182.85,21.18Z"/><path class="cls-4" d="M198.77,16.79a3.19,3.19,0,0,1,.83,2.36v4.41h-2.29v-4.1a1.57,1.57,0,0,0-.39-1.13,1.43,1.43,0,0,0-1.06-.39,1.41,1.41,0,0,0-1.06.39,1.57,1.57,0,0,0-.39,1.13v4.1h-2.3v-4.1a1.61,1.61,0,0,0-.38-1.13,1.65,1.65,0,0,0-2.13,0,1.61,1.61,0,0,0-.38,1.13v4.1H186.9V16h2.32V17a2.53,2.53,0,0,1,.92-.75,2.94,2.94,0,0,1,1.28-.28,3.14,3.14,0,0,1,1.52.37,2.57,2.57,0,0,1,1.05,1,3.06,3.06,0,0,1,1.07-1,2.8,2.8,0,0,1,1.47-.4A3,3,0,0,1,198.77,16.79Z"/></g></svg>