<svg width="144" height="99" viewBox="0 0 144 99" fill="none" xmlns="http://www.w3.org/2000/svg">
<g clip-path="url(#clip0_14_233)">
<rect x="0.0010376" width="107.989" height="74.2424" rx="2.99969" fill="white"/>
<rect x="0.188518" y="0.187481" width="107.614" height="73.8675" rx="2.81221" stroke="black" stroke-opacity="0.15" stroke-width="0.374962"/>
<mask id="path-3-inside-1_14_233" fill="white">
<path d="M0.000915527 6.74933H6.75023V74.2424H3.00092C1.34406 74.2424 0.000915527 72.8993 0.000915527 71.2424V6.74933Z"/>
</mask>
<path d="M0.000915527 6.74933H6.75023V74.2424H3.00092C1.34406 74.2424 0.000915527 72.8993 0.000915527 71.2424V6.74933Z" fill="#FAFAFA"/>
<path d="M0.000915527 6.74933H6.75023H0.000915527ZM7.12519 74.6174H3.00092C1.13698 74.6174 -0.374046 73.1064 -0.374046 71.2424H0.375877C0.375877 72.6922 1.55115 73.8675 3.00092 73.8675H6.37527L7.12519 74.6174ZM3.00092 74.6174C1.13698 74.6174 -0.374046 73.1064 -0.374046 71.2424V6.74933H0.375877V71.2424C0.375877 72.6922 1.55115 73.8675 3.00092 73.8675V74.6174ZM7.12519 6.74933V74.6174L6.37527 73.8675V6.74933H7.12519Z" fill="black" fill-opacity="0.15" mask="url(#path-3-inside-1_14_233)"/>
<line y1="6.81252" x2="108" y2="6.81252" stroke="black" stroke-opacity="0.15" stroke-width="0.374962"/>
<circle cx="4.50052" cy="3.7496" r="1.49985" fill="#F06464"/>
<circle cx="9.00003" cy="3.7496" r="1.49985" fill="#F3BD57"/>
<circle cx="13.4995" cy="3.7496" r="1.49985" fill="#6FCD52"/>
<rect x="1.50079" y="11.9988" width="3.74962" height="3.74962" rx="0.749924" fill="#161B22"/>
<rect x="1.50079" y="24.7475" width="3.74962" height="3.74962" rx="0.749924" fill="#161B22" fill-opacity="0.1"/>
<rect x="1.50079" y="29.9969" width="3.74962" height="3.74962" rx="0.749924" fill="#161B22" fill-opacity="0.1"/>
<rect x="1.50079" y="35.2464" width="3.74962" height="3.74962" rx="0.749924" fill="#161B22" fill-opacity="0.1"/>
<rect x="1.50079" y="40.4959" width="3.74962" height="3.74962" rx="0.749924" fill="#161B22" fill-opacity="0.1"/>
<rect x="1.50079" y="67.4931" width="3.74962" height="3.74962" rx="0.749924" fill="#161B22" fill-opacity="0.1"/>
<rect x="8.99908" y="15.7484" width="96.7401" height="35.9963" rx="1.1353" fill="black" fill-opacity="0.1"/>
<rect x="9.20215" y="11.9988" width="28.9502" height="2.2706" rx="1.1353" fill="black" fill-opacity="0.1"/>
<rect x="8.99908" y="57.7441" width="77.2421" height="13.4986" rx="1.1353" fill="black" fill-opacity="0.1"/>
<rect x="9.0199" y="53.9945" width="18.1648" height="2.2706" rx="1.1353" fill="black" fill-opacity="0.1"/>
<rect x="35" y="24" width="109" height="74.9375" rx="3.02778" fill="white"/>
<rect x="35.1892" y="24.1892" width="108.622" height="74.559" rx="2.83854" stroke="black" stroke-opacity="0.15" stroke-width="0.378472"/>
<rect x="64" y="84" width="78" height="13" rx="1.51389" fill="black" fill-opacity="0.1"/>
<rect x="64" y="41" width="78" height="35" rx="1.51389" fill="black" fill-opacity="0.1"/>
<rect x="64" y="36" width="29" height="3" rx="1.5" fill="black" fill-opacity="0.1"/>
<rect x="64" y="79" width="21" height="3" rx="1.5" fill="black" fill-opacity="0.1"/>
<mask id="path-25-inside-2_14_233" fill="white">
<path d="M35 30.8125H61.4931V98.9375H38C36.3431 98.9375 35 97.5944 35 95.9375V30.8125Z"/>
</mask>
<path d="M35 30.8125H61.4931V98.9375H38C36.3431 98.9375 35 97.5944 35 95.9375V30.8125Z" fill="#FAFAFA"/>
<path d="M35 30.8125H61.4931H35ZM61.8715 99.316H38C36.1341 99.316 34.6215 97.8034 34.6215 95.9375H35.3785C35.3785 97.3853 36.5522 98.559 38 98.559H61.1146L61.8715 99.316ZM38 99.316C36.1341 99.316 34.6215 97.8034 34.6215 95.9375V30.8125H35.3785V95.9375C35.3785 97.3853 36.5522 98.559 38 98.559V99.316ZM61.8715 30.8125V99.316L61.1146 98.559V30.8125H61.8715Z" fill="black" fill-opacity="0.15" mask="url(#path-25-inside-2_14_233)"/>
<line x1="35" y1="30.6233" x2="144" y2="30.6233" stroke="black" stroke-opacity="0.15" stroke-width="0.378472"/>
<circle cx="39.5417" cy="27.7847" r="1.51389" fill="#F06464"/>
<circle cx="44.0833" cy="27.7847" r="1.51389" fill="#F3BD57"/>
<circle cx="48.625" cy="27.7847" r="1.51389" fill="#6FCD52"/>
<rect x="38.0278" y="36.1111" width="6.05556" height="6.05556" rx="1.51389" fill="#161B22"/>
<rect x="45.5972" y="38.382" width="12.8681" height="2.27083" rx="1.13542" fill="#161B22"/>
<rect x="42.5695" y="48.9792" width="15.8958" height="3.78472" rx="0.756944" fill="#161B22" fill-opacity="0.1"/>
<rect x="38.0278" y="48.9792" width="3.78472" height="3.78472" rx="0.756944" fill="#161B22" fill-opacity="0.1"/>
<rect x="42.5695" y="54.2778" width="15.8958" height="3.78472" rx="0.756944" fill="#161B22" fill-opacity="0.1"/>
<rect x="38.0278" y="54.2778" width="3.78472" height="3.78472" rx="0.756944" fill="#161B22" fill-opacity="0.1"/>
<rect x="42.5695" y="59.5764" width="15.8958" height="3.78472" rx="0.756944" fill="#161B22" fill-opacity="0.1"/>
<rect x="38.0278" y="59.5764" width="3.78472" height="3.78472" rx="0.756944" fill="#161B22" fill-opacity="0.1"/>
<rect x="42.5695" y="64.875" width="15.8958" height="3.78472" rx="0.756944" fill="#161B22" fill-opacity="0.1"/>
<rect x="38.0278" y="64.875" width="3.78472" height="3.78472" rx="0.756944" fill="#161B22" fill-opacity="0.1"/>
<rect x="42.5695" y="92.125" width="15.8958" height="3.78472" rx="0.756944" fill="#161B22" fill-opacity="0.1"/>
<rect x="38.0278" y="92.125" width="3.78472" height="3.78472" rx="0.756944" fill="#161B22" fill-opacity="0.1"/>
<g filter="url(#filter0_d_14_233)">
<path d="M18.2298 84.5L17.8425 84.8162L18.2298 84.5ZM37.6361 88.2914C37.797 88.067 37.7456 87.7546 37.5212 87.5937L33.8642 84.9713C33.6398 84.8104 33.3274 84.8619 33.1665 85.0863C33.0056 85.3107 33.0571 85.623 33.2815 85.784L36.5321 88.115L34.2011 91.3656C34.0402 91.59 34.0917 91.9024 34.3161 92.0633C34.5405 92.2242 34.8528 92.1727 35.0138 91.9483L37.6361 88.2914ZM17.2298 67C16.7474 66.8683 16.7474 66.8685 16.7473 66.8687C16.7473 66.8688 16.7472 66.8691 16.7472 66.8693C16.747 66.8698 16.7468 66.8705 16.7466 66.8714C16.7461 66.8732 16.7455 66.8757 16.7446 66.8789C16.7429 66.8853 16.7403 66.8947 16.7371 66.9069C16.7306 66.9313 16.7212 66.9671 16.7092 67.0136C16.6853 67.1068 16.651 67.243 16.609 67.4177C16.5251 67.7671 16.4106 68.2707 16.2869 68.891C16.0398 70.1306 15.7554 71.8413 15.6079 73.7225C15.4605 75.6014 15.4484 77.6652 15.7532 79.6062C16.0574 81.5431 16.6831 83.3962 17.8425 84.8162L18.6171 84.1838C17.6118 82.9525 17.0303 81.2925 16.7411 79.4511C16.4525 77.6137 16.461 75.6339 16.6048 73.8007C16.7484 71.9696 17.0258 70.2996 17.2676 69.0865C17.3884 68.4804 17.5001 67.9896 17.5814 67.6512C17.622 67.4821 17.655 67.3511 17.6777 67.2629C17.689 67.2188 17.6978 67.1855 17.7037 67.1634C17.7066 67.1524 17.7088 67.1441 17.7102 67.1388C17.7109 67.1362 17.7115 67.1342 17.7118 67.133C17.7119 67.1324 17.7121 67.132 17.7121 67.1318C17.7121 67.1317 17.7122 67.1316 17.7122 67.1316C17.7122 67.1316 17.7122 67.1317 17.2298 67ZM17.8425 84.8162C19.1221 86.3835 21.0106 87.3735 23.0678 87.9913C25.1285 88.6101 27.4009 88.8682 29.5018 88.9413C31.6054 89.0145 33.555 88.9026 34.9775 88.7729C35.6893 88.708 36.2705 88.6385 36.6747 88.585C36.8768 88.5583 37.0347 88.5355 37.1427 88.5194C37.1967 88.5113 37.2382 88.5049 37.2665 88.5005C37.2807 88.4982 37.2915 88.4965 37.299 88.4953C37.3027 88.4947 37.3056 88.4942 37.3076 88.4939C37.3086 88.4938 37.3094 88.4936 37.31 88.4935C37.3103 88.4935 37.3106 88.4934 37.3107 88.4934C37.3109 88.4934 37.3111 88.4933 37.2298 88C37.1485 87.5067 37.1486 87.5066 37.1486 87.5066C37.1485 87.5067 37.1484 87.5067 37.1483 87.5067C37.148 87.5067 37.1475 87.5068 37.1468 87.5069C37.1454 87.5072 37.1431 87.5075 37.14 87.508C37.1337 87.509 37.1241 87.5106 37.1111 87.5126C37.0853 87.5167 37.0463 87.5227 36.995 87.5304C36.8922 87.5457 36.7398 87.5677 36.5435 87.5936C36.151 87.6456 35.5833 87.7135 34.8866 87.777C33.4922 87.9042 31.5864 88.0132 29.5365 87.9419C27.4839 87.8705 25.3045 87.6189 23.3554 87.0336C21.4027 86.4472 19.7233 85.5387 18.6171 84.1838L17.8425 84.8162Z" fill="black"/>
</g>
</g>
<defs>
<filter id="filter0_d_14_233" x="7.7072" y="59.0687" width="37.8227" height="40.8883" filterUnits="userSpaceOnUse" color-interpolation-filters="sRGB">
<feFlood flood-opacity="0" result="BackgroundImageFix"/>
<feColorMatrix in="SourceAlpha" type="matrix" values="0 0 0 0 0 0 0 0 0 0 0 0 0 0 0 0 0 0 127 0" result="hardAlpha"/>
<feOffset/>
<feGaussianBlur stdDeviation="3.9"/>
<feComposite in2="hardAlpha" operator="out"/>
<feColorMatrix type="matrix" values="0 0 0 0 1 0 0 0 0 1 0 0 0 0 1 0 0 0 1 0"/>
<feBlend mode="normal" in2="BackgroundImageFix" result="effect1_dropShadow_14_233"/>
<feBlend mode="normal" in="SourceGraphic" in2="effect1_dropShadow_14_233" result="shape"/>
</filter>
<clipPath id="clip0_14_233">
<rect width="144" height="99" fill="white"/>
</clipPath>
</defs>
</svg>
