<svg xmlns="http://www.w3.org/2000/svg" viewBox="0 0 32 32"><defs><style>.cls-1{fill:#17b681;}.cls-2{fill:#e8b221;}.cls-3{fill:#ee4543;}</style></defs><title>favicon-v3</title><g id="Layer_3" data-name="Layer 3"><path class="cls-1" d="M4.12,25h0A3.86,3.86,0,0,1,.78,23.07h0a3.85,3.85,0,0,1,3.34-5.78h0a3.85,3.85,0,0,1,3.34,1.92h0A3.86,3.86,0,0,1,4.12,25Z"/><path class="cls-2" d="M16,25h0a3.86,3.86,0,0,1-3.34-1.93L9.32,17.29,7.83,14.71,6.72,12.79A3.86,3.86,0,0,1,10.06,7h0A3.86,3.86,0,0,1,13.4,8.93l3.34,5.78,1.49,2.58,1.11,1.93A3.85,3.85,0,0,1,16,25Z"/><path class="cls-3" d="M27.88,25h0a3.86,3.86,0,0,1-3.34-1.93L21.2,17.29l-1.49-2.58L18.6,12.79A3.86,3.86,0,0,1,21.94,7h0a3.86,3.86,0,0,1,3.34,1.93l3.34,5.78,1.48,2.58,1.12,1.92A3.86,3.86,0,0,1,27.88,25Z"/></g></svg>